<?xml version="1.0" encoding="utf-8"?>
<!-- Generator: Adobe Illustrator 18.0.0, SVG Export Plug-In . SVG Version: 6.00 Build 0)  -->
<!DOCTYPE svg PUBLIC "-//W3C//DTD SVG 1.1//EN" "http://www.w3.org/Graphics/SVG/1.1/DTD/svg11.dtd">
<svg version="1.1" xmlns="http://www.w3.org/2000/svg" xmlns:xlink="http://www.w3.org/1999/xlink" x="0px" y="0px"
	 viewBox="0 0 24 24" enable-background="new 0 0 24 24" xml:space="preserve">
<g id="Layer_20">
</g>
<g id="Layer_19">
	<g>
		<path fill="none" stroke="#EFA937" stroke-width="2" stroke-miterlimit="10" d="M20.4,23H3.7c-0.6,0-1-0.4-1-1V2c0-0.6,0.4-1,1-1
			h16.7c0.6,0,1,0.4,1,1v20C21.4,22.6,20.9,23,20.4,23z"/>
		<g>
			
				<rect x="3.5" y="10.3" fill="#EFA836" stroke="#EFA937" stroke-width="0.5" stroke-linecap="round" stroke-linejoin="round" stroke-miterlimit="10" width="1.4" height="1.3"/>
			
				<rect x="9.1" y="10.3" fill="#EFA836" stroke="#EFA937" stroke-width="0.5" stroke-linecap="round" stroke-linejoin="round" stroke-miterlimit="10" width="1.4" height="1.3"/>
			
				<rect x="6.3" y="10.3" fill="#EFA836" stroke="#EFA937" stroke-width="0.5" stroke-linecap="round" stroke-linejoin="round" stroke-miterlimit="10" width="1.4" height="1.3"/>
			
				<rect x="12" y="10.3" fill="#EFA836" stroke="#EFA937" stroke-width="0.5" stroke-linecap="round" stroke-linejoin="round" stroke-miterlimit="10" width="1.4" height="1.3"/>
			
				<rect x="17.6" y="10.3" fill="#EFA836" stroke="#EFA937" stroke-width="0.5" stroke-linecap="round" stroke-linejoin="round" stroke-miterlimit="10" width="1.4" height="1.3"/>
			
				<rect x="14.8" y="10.3" fill="#EFA836" stroke="#EFA937" stroke-width="0.5" stroke-linecap="round" stroke-linejoin="round" stroke-miterlimit="10" width="1.4" height="1.3"/>
			
				<rect x="10.7" y="11.6" fill="#EFA836" stroke="#EFA937" stroke-width="0.5" stroke-linecap="round" stroke-linejoin="round" stroke-miterlimit="10" width="1.4" height="1.3"/>
			
				<rect x="4.9" y="11.6" fill="#EFA836" stroke="#EFA937" stroke-width="0.5" stroke-linecap="round" stroke-linejoin="round" stroke-miterlimit="10" width="1.4" height="1.3"/>
			
				<rect x="7.7" y="11.6" fill="#EFA836" stroke="#EFA937" stroke-width="0.5" stroke-linecap="round" stroke-linejoin="round" stroke-miterlimit="10" width="1.4" height="1.3"/>
			
				<rect x="19.2" y="11.6" fill="#EFA836" stroke="#EFA937" stroke-width="0.5" stroke-linecap="round" stroke-linejoin="round" stroke-miterlimit="10" width="1.4" height="1.3"/>
			
				<rect x="13.4" y="11.6" fill="#EFA836" stroke="#EFA937" stroke-width="0.5" stroke-linecap="round" stroke-linejoin="round" stroke-miterlimit="10" width="1.4" height="1.3"/>
			
				<rect x="16.2" y="11.6" fill="#EFA836" stroke="#EFA937" stroke-width="0.5" stroke-linecap="round" stroke-linejoin="round" stroke-miterlimit="10" width="1.4" height="1.3"/>
		</g>
		<path opacity="0.2" fill="#EFA973" d="M20.9,1.2L3,22.7C3.2,22.9,3.5,23,3.8,23h16.5c0.6,0,1.1-0.5,1.1-1.1V2.1
			C21.4,1.7,21.2,1.4,20.9,1.2z"/>
	</g>
</g>
<g id="Layer_18">
</g>
<g id="Layer_17">
</g>
<g id="Layer_16">
</g>
<g id="Layer_15">
</g>
<g id="Layer_14">
</g>
<g id="Layer_13">
</g>
<g id="Layer_12">
</g>
<g id="Layer_11">
</g>
<g id="Layer_10">
</g>
<g id="Layer_9">
</g>
<g id="Layer_8">
</g>
<g id="Layer_7">
</g>
<g id="Layer_6">
</g>
<g id="Layer_5">
</g>
<g id="Layer_4">
</g>
<g id="Layer_3">
</g>
<g id="Layer_2">
</g>
<g id="Layer_1">
</g>
</svg>
