<?xml version="1.0" encoding="utf-8"?>
<!-- Generator: Adobe Illustrator 18.0.0, SVG Export Plug-In . SVG Version: 6.00 Build 0)  -->
<!DOCTYPE svg PUBLIC "-//W3C//DTD SVG 1.1//EN" "http://www.w3.org/Graphics/SVG/1.1/DTD/svg11.dtd">
<svg version="1.1" xmlns="http://www.w3.org/2000/svg" xmlns:xlink="http://www.w3.org/1999/xlink" x="0px" y="0px"
	 viewBox="0 0 24 24" enable-background="new 0 0 24 24" xml:space="preserve">
<g id="Layer_20">
</g>
<g id="Layer_19">
</g>
<g id="Layer_18">
</g>
<g id="Layer_17">
</g>
<g id="Layer_16">
</g>
<g id="Layer_15">
</g>
<g id="Layer_14">
</g>
<g id="Layer_13">
</g>
<g id="Layer_12">
</g>
<g id="Layer_11">
</g>
<g id="Layer_10">
</g>
<g id="Layer_9">
</g>
<g id="Layer_8">
	<g>
		<g>
			<path fill="none" stroke="#3E90CD" stroke-width="2" stroke-linecap="round" stroke-miterlimit="10" d="M12.1,1H2.7
				C2.3,1,2,1.3,2,1.6v16.8"/>
		</g>
		<g>
			<path fill="none" stroke="#3E90CD" stroke-width="2" stroke-miterlimit="10" d="M16.5,4.9H7c-0.4,0-0.7,0.3-0.7,0.6v16.8
				C6.4,22.7,6.7,23,7,23h14.3c0.4,0,0.7-0.3,0.7-0.6V10.1c0-0.2-0.1-0.4-0.2-0.5c-1.1-1-2.6-2.4-4.8-4.4C16.9,5,16.7,4.9,16.5,4.9z
				"/>
			<g>
				
					<line fill="none" stroke="#3E90CD" stroke-linecap="round" stroke-linejoin="round" stroke-miterlimit="10" x1="12.1" y1="14.3" x2="19.1" y2="14.3"/>
				<ellipse fill="none" stroke="#3E90CD" stroke-miterlimit="10" cx="10.1" cy="14.4" rx="0.6" ry="0.5"/>
				
					<line fill="none" stroke="#3E90CD" stroke-linecap="round" stroke-linejoin="round" stroke-miterlimit="10" x1="12.1" y1="18.3" x2="19.1" y2="18.3"/>
				<ellipse fill="none" stroke="#3E90CD" stroke-miterlimit="10" cx="10.1" cy="18.4" rx="0.6" ry="0.5"/>
			</g>
			<path fill="none" stroke="#3E90CD" stroke-width="2" stroke-miterlimit="10" d="M16.3,5.6l0,3.7c0,0.2,0.2,0.4,0.4,0.4l4.9,0
				c0.1,0,0.1-0.1,0.1-0.2l-4.8-4.2C16.7,5.2,16.3,5.3,16.3,5.6z"/>
		</g>
	</g>
</g>
<g id="Layer_7">
</g>
<g id="Layer_6">
</g>
<g id="Layer_5">
</g>
<g id="Layer_4">
</g>
<g id="Layer_3">
</g>
<g id="Layer_2">
</g>
<g id="Layer_1">
</g>
</svg>
