<?xml version="1.0" encoding="utf-8"?>
<!-- Generator: Adobe Illustrator 18.0.0, SVG Export Plug-In . SVG Version: 6.00 Build 0)  -->
<!DOCTYPE svg PUBLIC "-//W3C//DTD SVG 1.1//EN" "http://www.w3.org/Graphics/SVG/1.1/DTD/svg11.dtd">
<svg version="1.1" xmlns="http://www.w3.org/2000/svg" xmlns:xlink="http://www.w3.org/1999/xlink" x="0px" y="0px"
	 viewBox="0 0 24 24" enable-background="new 0 0 24 24" xml:space="preserve">
<g id="Layer_20">
</g>
<g id="Layer_19">
</g>
<g id="Layer_18">
</g>
<g id="Layer_17">
</g>
<g id="Layer_16">
</g>
<g id="Layer_15">
</g>
<g id="Layer_14">
</g>
<g id="Layer_13">
</g>
<g id="Layer_12">
</g>
<g id="Layer_11">
	<g>
		<path fill="#3C90CD" d="M3.9,8v13.6c0,0.7,0.7,1.4,1.5,1.4h13.2c0.8,0,1.5-0.6,1.5-1.4V8H3.9z"/>
		<g>
			<rect x="5.6" y="9.6" fill="#FFFFFF" width="1.8" height="11.8"/>
			<rect x="9.2" y="9.6" fill="#FFFFFF" width="1.8" height="11.8"/>
			<rect x="12.9" y="9.6" fill="#FFFFFF" width="1.8" height="11.8"/>
			<rect x="16.5" y="9.6" fill="#FFFFFF" width="1.8" height="11.8"/>
		</g>
		<path fill="#3C90CD" d="M20.4,3.7h-4.8V2c0-0.6-0.5-1-1.1-1H9.4C8.8,1,8.3,1.5,8.3,2v1.7H3.6c-0.6,0-1.1,0.5-1.1,1v1.7h19V4.7
			C21.5,4.2,21,3.7,20.4,3.7z M14.2,3.7H9.8V2.4h4.4V3.7z"/>
	</g>
</g>
<g id="Layer_10">
</g>
<g id="Layer_9">
</g>
<g id="Layer_8">
</g>
<g id="Layer_7">
</g>
<g id="Layer_6">
</g>
<g id="Layer_5">
</g>
<g id="Layer_4">
</g>
<g id="Layer_3">
</g>
<g id="Layer_2">
</g>
<g id="Layer_1">
</g>
</svg>
