<?xml version="1.0" encoding="utf-8"?>
<!-- Generator: Adobe Illustrator 18.0.0, SVG Export Plug-In . SVG Version: 6.00 Build 0)  -->
<!DOCTYPE svg PUBLIC "-//W3C//DTD SVG 1.1//EN" "http://www.w3.org/Graphics/SVG/1.1/DTD/svg11.dtd">
<svg version="1.1" xmlns="http://www.w3.org/2000/svg" xmlns:xlink="http://www.w3.org/1999/xlink" x="0px" y="0px"
	 viewBox="0 0 24 24" enable-background="new 0 0 24 24" xml:space="preserve">
<g id="Layer_20">
</g>
<g id="Layer_19">
</g>
<g id="Layer_18">
</g>
<g id="Layer_17">
</g>
<g id="Layer_16">
</g>
<g id="Layer_15">
</g>
<g id="Layer_14">
</g>
<g id="Layer_13">
	<g>
		<path fill="#3C90CD" stroke="#3C90CD" stroke-miterlimit="10" d="M9.5,10.1H2V2.6c0-0.3,0.2-0.5,0.5-0.5H10v7.5
			C10,9.8,9.7,10.1,9.5,10.1z"/>
		<path fill="#3C90CD" stroke="#3C90CD" stroke-miterlimit="10" d="M22,10.1h-7.5c-0.3,0-0.5-0.2-0.5-0.5V2.1h7.5
			c0.3,0,0.5,0.2,0.5,0.5V10.1z"/>
		<path fill="#3C90CD" stroke="#3C90CD" stroke-miterlimit="10" d="M10,21.9H2.5c-0.3,0-0.5-0.2-0.5-0.5v-7.5h7.5
			c0.3,0,0.5,0.2,0.5,0.5V21.9z"/>
		<path fill="#3C90CD" stroke="#3C90CD" stroke-miterlimit="10" d="M21.5,21.9H14v-7.5c0-0.3,0.2-0.5,0.5-0.5H22v7.5
			C22,21.7,21.8,21.9,21.5,21.9z"/>
	</g>
</g>
<g id="Layer_12">
</g>
<g id="Layer_11">
</g>
<g id="Layer_10">
</g>
<g id="Layer_9">
</g>
<g id="Layer_8">
</g>
<g id="Layer_7">
</g>
<g id="Layer_6">
</g>
<g id="Layer_5">
</g>
<g id="Layer_4">
</g>
<g id="Layer_3">
</g>
<g id="Layer_2">
</g>
<g id="Layer_1">
</g>
</svg>
