<?xml version="1.0" encoding="utf-8"?>
<!-- Generator: Adobe Illustrator 18.0.0, SVG Export Plug-In . SVG Version: 6.00 Build 0)  -->
<!DOCTYPE svg PUBLIC "-//W3C//DTD SVG 1.1//EN" "http://www.w3.org/Graphics/SVG/1.1/DTD/svg11.dtd">
<svg version="1.1" xmlns="http://www.w3.org/2000/svg" xmlns:xlink="http://www.w3.org/1999/xlink" x="0px" y="0px"
	 viewBox="0 0 24 24" enable-background="new 0 0 24 24" xml:space="preserve">
<g id="Layer_20">
</g>
<g id="Layer_19">
</g>
<g id="Layer_18">
</g>
<g id="Layer_17">
</g>
<g id="Layer_16">
</g>
<g id="Layer_15">
</g>
<g id="Layer_14">
</g>
<g id="Layer_13">
</g>
<g id="Layer_12">
</g>
<g id="Layer_11">
</g>
<g id="Layer_10">
</g>
<g id="Layer_9">
</g>
<g id="Layer_8">
</g>
<g id="Layer_7">
</g>
<g id="Layer_6">
</g>
<g id="Layer_5">
</g>
<g id="Layer_4">
</g>
<g id="Layer_3">
</g>
<g id="Layer_2">
</g>
<g id="Layer_1">
	<g>
		<g>
			<path fill="none" stroke="#6D6E71" stroke-width="2" stroke-miterlimit="10" d="M18.3,13.2V9.4c0-3.3-2.8-6-6.3-6h0
				c-3.5,0-6.3,2.7-6.3,6v3.8c0,0.7,0.2,3.5-1.4,3.5l0,0c-1,0-1.7,0.8-1.7,1.7l0,0c0,0.9,0.8,1.7,1.7,1.7h15.5c1,0,1.7-0.8,1.7-1.7
				l0,0c0-0.9-0.8-1.7-1.7-1.7l0,0C18.1,16.7,18.3,13.9,18.3,13.2z"/>
			<path fill="#6D6E71" stroke="#6D6E71" stroke-width="2" stroke-miterlimit="10" d="M10,20c-0.1,0.3-0.2,0.6-0.2,0.9
				c0,1.2,1,2.1,2.2,2.1s2.2-0.9,2.2-2.1c0-0.3-0.1-0.6-0.2-0.9H10z"/>
			<path fill="none" stroke="#6D6E71" stroke-width="2" stroke-miterlimit="10" d="M12,3.4L12,3.4c0.4,0,0.8,0,1.2,0.1
				c0.2-0.3,0.4-0.6,0.4-1C13.6,1.7,12.9,1,12,1c-0.9,0-1.6,0.7-1.6,1.5c0,0.4,0.1,0.7,0.4,1C11.2,3.4,11.6,3.4,12,3.4z"/>
		</g>
	</g>
</g>
</svg>
