<?xml version="1.0" encoding="utf-8"?>
<!-- Generator: Adobe Illustrator 18.0.0, SVG Export Plug-In . SVG Version: 6.00 Build 0)  -->
<!DOCTYPE svg PUBLIC "-//W3C//DTD SVG 1.1//EN" "http://www.w3.org/Graphics/SVG/1.1/DTD/svg11.dtd">
<svg version="1.1" xmlns="http://www.w3.org/2000/svg" xmlns:xlink="http://www.w3.org/1999/xlink" x="0px" y="0px"
	 viewBox="0 0 24 24" enable-background="new 0 0 24 24" xml:space="preserve">
<g id="Layer_20">
</g>
<g id="Layer_19">
</g>
<g id="Layer_18">
</g>
<g id="Layer_17">
</g>
<g id="Layer_16">
</g>
<g id="Layer_15">
</g>
<g id="Layer_14">
</g>
<g id="Layer_13">
</g>
<g id="Layer_12">
</g>
<g id="Layer_11">
</g>
<g id="Layer_10">
</g>
<g id="Layer_9">
	<g>
		<g>
			<path fill="none" stroke="#3E90CD" stroke-width="2" stroke-miterlimit="10" d="M5.9,2h8.4c0.3,0,0.6,0.3,0.6,0.6v15.3
				c0,0.3-0.3,0.6-0.6,0.6H1.6c-0.3,0-0.6-0.3-0.6-0.6V6.7c0-0.2,0.1-0.4,0.2-0.5c1-0.9,2.3-2.2,4.3-4C5.6,2.1,5.8,2,5.9,2z"/>
			<g>
				
					<line fill="none" stroke="#3E90CD" stroke-linecap="round" stroke-linejoin="round" stroke-miterlimit="10" x1="5.8" y1="10.6" x2="12.1" y2="10.6"/>
				<ellipse fill="#FFFFFF" stroke="#3E90CD" stroke-miterlimit="10" cx="4.1" cy="10.7" rx="0.5" ry="0.5"/>
				
					<line fill="none" stroke="#3E90CD" stroke-linecap="round" stroke-linejoin="round" stroke-miterlimit="10" x1="5.8" y1="14.2" x2="12.1" y2="14.2"/>
				<ellipse fill="#FFFFFF" stroke="#3E90CD" stroke-miterlimit="10" cx="4.1" cy="14.4" rx="0.5" ry="0.5"/>
			</g>
			<path fill="none" stroke="#3E90CD" stroke-width="2" stroke-miterlimit="10" d="M6.1,2.6l0,3.4c0,0.2-0.2,0.4-0.4,0.4l-4.3,0
				c-0.1,0-0.1-0.1-0.1-0.2l4.2-3.8C5.8,2.2,6.1,2.4,6.1,2.6z"/>
		</g>
		<g>
			<path fill="#FFFFFF" d="M14,5.5h8.4c0.3,0,0.6,0.3,0.6,0.6v15.3c0,0.3-0.3,0.6-0.6,0.6H9.6c-0.3,0-0.6-0.3-0.6-0.6V10.2
				c0-0.2,0.1-0.4,0.2-0.5c1-0.9,2.3-2.2,4.3-4C13.7,5.6,13.8,5.5,14,5.5z"/>
			<path fill="none" stroke="#3E90CD" stroke-width="2" stroke-miterlimit="10" d="M14,5.5h8.4c0.3,0,0.6,0.3,0.6,0.6v15.3
				c0,0.3-0.3,0.6-0.6,0.6H9.6c-0.3,0-0.6-0.3-0.6-0.6V10.2c0-0.2,0.1-0.4,0.2-0.5c1-0.9,2.3-2.2,4.3-4C13.7,5.6,13.8,5.5,14,5.5z"
				/>
			<g>
				
					<line fill="#F1F2F2" stroke="#3E90CD" stroke-linecap="round" stroke-linejoin="round" stroke-miterlimit="10" x1="13.9" y1="14.1" x2="20.2" y2="14.1"/>
				<ellipse fill="#F1F2F2" stroke="#3E90CD" stroke-miterlimit="10" cx="12.2" cy="14.2" rx="0.5" ry="0.5"/>
				
					<line fill="#F1F2F2" stroke="#3E90CD" stroke-linecap="round" stroke-linejoin="round" stroke-miterlimit="10" x1="13.9" y1="17.7" x2="20.2" y2="17.7"/>
				<ellipse fill="#F1F2F2" stroke="#3E90CD" stroke-miterlimit="10" cx="12.2" cy="17.9" rx="0.5" ry="0.5"/>
			</g>
			<path fill="#FFFFFF" stroke="#3E90CD" stroke-width="2" stroke-miterlimit="10" d="M14.2,6.1l0,3.4c0,0.2-0.2,0.4-0.4,0.4l-4.3,0
				c-0.1,0-0.1-0.1-0.1-0.2l4.2-3.8C13.8,5.7,14.2,5.9,14.2,6.1z"/>
		</g>
	</g>
</g>
<g id="Layer_8">
</g>
<g id="Layer_7">
</g>
<g id="Layer_6">
</g>
<g id="Layer_5">
</g>
<g id="Layer_4">
</g>
<g id="Layer_3">
</g>
<g id="Layer_2">
</g>
<g id="Layer_1">
</g>
</svg>
