<?xml version="1.0" encoding="utf-8"?>
<!-- Generator: Adobe Illustrator 18.0.0, SVG Export Plug-In . SVG Version: 6.00 Build 0)  -->
<!DOCTYPE svg PUBLIC "-//W3C//DTD SVG 1.1//EN" "http://www.w3.org/Graphics/SVG/1.1/DTD/svg11.dtd">
<svg version="1.1" xmlns="http://www.w3.org/2000/svg" xmlns:xlink="http://www.w3.org/1999/xlink" x="0px" y="0px"
	 viewBox="0 0 24 24" enable-background="new 0 0 24 24" xml:space="preserve">
<g id="Layer_20">
</g>
<g id="Layer_19">
</g>
<g id="Layer_18">
</g>
<g id="Layer_17">
</g>
<g id="Layer_16">
</g>
<g id="Layer_15">
</g>
<g id="Layer_14">
</g>
<g id="Layer_13">
</g>
<g id="Layer_12">
</g>
<g id="Layer_11">
</g>
<g id="Layer_10">
</g>
<g id="Layer_9">
</g>
<g id="Layer_8">
</g>
<g id="Layer_7">
</g>
<g id="Layer_6">
	<g>
		<path fill="none" stroke="#3F90CD" stroke-width="2" stroke-miterlimit="10" d="M5.5,5.9c0,2.1-1.6,3.8-3.6,4
			c-0.3,0-0.4,0.2-0.4,0.5l0,3.2c0,0.2,0.2,0.5,0.4,0.5c0.5,0.1,1.1,0.2,1.6,0.5c1.8,1,2.5,3.2,1.7,5.1c-0.1,0.2,0,0.5,0.2,0.6
			l2.8,1.6c0.2,0.1,0.5,0.1,0.6-0.1c0.3-0.5,0.7-0.8,1.2-1.1c1.8-1,4-0.5,5.2,1.1c0.1,0.2,0.4,0.3,0.6,0.2l2.8-1.6
			c0.2-0.1,0.3-0.4,0.2-0.6c-0.2-0.5-0.4-1.1-0.4-1.6c0-2.1,1.6-3.8,3.6-4c0.3,0,0.4-0.2,0.4-0.5l0-3.2c0-0.2-0.2-0.5-0.4-0.5
			c-0.5-0.1-1.1-0.2-1.6-0.5c-1.8-1-2.5-3.2-1.7-5.1c0.1-0.2,0-0.5-0.2-0.6l-2.8-1.6c-0.2-0.1-0.5-0.1-0.6,0.2
			C14.9,2.7,14.5,3,14,3.3c-1.8,1-4,0.5-5.2-1.1C8.6,2,8.4,1.9,8.2,2.1L5.4,3.7C5.2,3.8,5.1,4.1,5.2,4.3C5.4,4.8,5.5,5.3,5.5,5.9z"
			/>
		<path fill="#3E90CD" stroke="#3F90CD" stroke-miterlimit="10" d="M13.3,8.5c2.3,0.9,3.1,3.8,1.6,5.8c-1,1.2-2.7,1.7-4.2,1.1
			c-2.3-0.9-3.1-3.8-1.6-5.8C10.1,8.4,11.8,8,13.3,8.5z"/>
	</g>
</g>
<g id="Layer_5">
</g>
<g id="Layer_4">
</g>
<g id="Layer_3">
</g>
<g id="Layer_2">
</g>
<g id="Layer_1">
</g>
</svg>
