<?xml version="1.0" encoding="utf-8"?>
<!-- Generator: Adobe Illustrator 18.0.0, SVG Export Plug-In . SVG Version: 6.00 Build 0)  -->
<!DOCTYPE svg PUBLIC "-//W3C//DTD SVG 1.1//EN" "http://www.w3.org/Graphics/SVG/1.1/DTD/svg11.dtd">
<svg version="1.1" xmlns="http://www.w3.org/2000/svg" xmlns:xlink="http://www.w3.org/1999/xlink" x="0px" y="0px"
	 viewBox="0 0 24 24" enable-background="new 0 0 24 24" xml:space="preserve">
<g id="Layer_20">
</g>
<g id="Layer_19">
</g>
<g id="Layer_18">
</g>
<g id="Layer_17">
</g>
<g id="Layer_16">
</g>
<g id="Layer_15">
</g>
<g id="Layer_14">
</g>
<g id="Layer_13">
</g>
<g id="Layer_12">
</g>
<g id="Layer_11">
</g>
<g id="Layer_10">
</g>
<g id="Layer_9">
</g>
<g id="Layer_8">
</g>
<g id="Layer_7">
</g>
<g id="Layer_6">
</g>
<g id="Layer_5">
</g>
<g id="Layer_4">
</g>
<g id="Layer_3">
	<g>
		<polyline fill="none" stroke="#939598" stroke-linecap="round" stroke-linejoin="round" stroke-miterlimit="10" points="15.3,7.1 
			16.1,7.9 17.8,6.6 		"/>
		
			<line fill="none" stroke="#939598" stroke-linecap="round" stroke-linejoin="round" stroke-miterlimit="10" x1="9.6" y1="12.5" x2="17.4" y2="12.5"/>
		
			<line fill="none" stroke="#939598" stroke-linecap="round" stroke-linejoin="round" stroke-miterlimit="10" x1="9.4" y1="7.9" x2="12" y2="7.9"/>
		<ellipse fill="#939598" stroke="#939598" stroke-miterlimit="10" cx="7" cy="12.3" rx="0.6" ry="0.6"/>
		
			<line fill="none" stroke="#939598" stroke-linecap="round" stroke-linejoin="round" stroke-miterlimit="10" x1="9.6" y1="16.5" x2="17.4" y2="16.5"/>
		<ellipse fill="#939598" stroke="#939598" stroke-miterlimit="10" cx="7" cy="16.3" rx="0.6" ry="0.6"/>
		<ellipse fill="#939598" stroke="#939598" stroke-miterlimit="10" cx="7" cy="7.7" rx="0.6" ry="0.6"/>
		<path fill="none" stroke="#6D6E71" stroke-width="2" stroke-miterlimit="10" d="M22,23H2c-0.6,0-1-0.4-1-1V2c0-0.6,0.4-1,1-1h20
			c0.6,0,1,0.4,1,1v20C23,22.6,22.6,23,22,23z"/>
	</g>
</g>
<g id="Layer_2">
</g>
<g id="Layer_1">
</g>
</svg>
