<?xml version="1.0" encoding="utf-8"?>
<!-- Generator: Adobe Illustrator 18.0.0, SVG Export Plug-In . SVG Version: 6.00 Build 0)  -->
<!DOCTYPE svg PUBLIC "-//W3C//DTD SVG 1.1//EN" "http://www.w3.org/Graphics/SVG/1.1/DTD/svg11.dtd">
<svg version="1.1" xmlns="http://www.w3.org/2000/svg" xmlns:xlink="http://www.w3.org/1999/xlink" x="0px" y="0px"
	 viewBox="0 0 24 24" enable-background="new 0 0 24 24" xml:space="preserve">
<g id="Layer_20">
	<g>
		<path fill="#4C9AD4" d="M22.6,22.1H6.2c-0.6,0-1.1-0.5-1.1-1.2V3.1c0-0.7,0.5-1.2,1.1-1.2h3.5c0.3,0,0.6,0.1,0.8,0.4l1,0.9
			c0.2,0.3,0.5,0.4,0.8,0.4h10.3c0.6,0,1.1,0.5,1.1,1.2v16.1C23.7,21.6,23.2,22.1,22.6,22.1z"/>
		<path fill="#E9E7E8" d="M20.3,18.1h-9c-1.6,0-2.9-1.3-2.9-2.9V6.7c0-1.6,1.3-2.9,2.9-2.9h9c1.6,0,2.9,1.3,2.9,2.9v8.4
			C23.2,16.8,21.9,18.1,20.3,18.1z"/>
		<path fill="#FFFFFF" d="M20.3,18.9h-9c-1.6,0-2.9-1.3-2.9-2.9V7.5c0-1.6,1.3-2.9,2.9-2.9h9c1.6,0,2.9,1.3,2.9,2.9V16
			C23.2,17.6,21.9,18.9,20.3,18.9z"/>
		<path fill="#75BBE5" d="M22.9,22.1H1.1c-0.6,0-1.1-0.5-1.1-1.2V3.1c0-0.7,0.5-1.2,1.1-1.2h4.8c0.3,0,0.6,0.1,0.8,0.4L9.7,5
			c0.2,0.3,0.5,0.4,0.8,0.4h12.4C23.5,5.4,24,6,24,6.6v14.3C24,21.6,23.5,22.1,22.9,22.1z"/>
	</g>
</g>
<g id="Layer_19">
</g>
<g id="Layer_18">
</g>
<g id="Layer_17">
</g>
<g id="Layer_16">
</g>
<g id="Layer_15">
</g>
<g id="Layer_14">
</g>
<g id="Layer_13">
</g>
<g id="Layer_12">
</g>
<g id="Layer_11">
</g>
<g id="Layer_10">
</g>
<g id="Layer_9">
</g>
<g id="Layer_8">
</g>
<g id="Layer_7">
</g>
<g id="Layer_6">
</g>
<g id="Layer_5">
</g>
<g id="Layer_4">
</g>
<g id="Layer_3">
</g>
<g id="Layer_2">
</g>
<g id="Layer_1">
</g>
</svg>
