<?xml version="1.0" encoding="utf-8"?>
<!-- Generator: Adobe Illustrator 18.0.0, SVG Export Plug-In . SVG Version: 6.00 Build 0)  -->
<!DOCTYPE svg PUBLIC "-//W3C//DTD SVG 1.1//EN" "http://www.w3.org/Graphics/SVG/1.1/DTD/svg11.dtd">
<svg version="1.1" xmlns="http://www.w3.org/2000/svg" xmlns:xlink="http://www.w3.org/1999/xlink" x="0px" y="0px"
	 viewBox="0 0 24 24" enable-background="new 0 0 24 24" xml:space="preserve">
<g id="Layer_20">
</g>
<g id="Layer_19">
</g>
<g id="Layer_18">
</g>
<g id="Layer_17">
</g>
<g id="Layer_16">
</g>
<g id="Layer_15">
	<g>
		<path fill="#6D6E71" d="M10.4,14.7c-0.3,0-0.6-0.1-0.8-0.3c-2.1-2.1-2.1-5.5,0-7.6l4.2-4.2c1-1,2.4-1.6,3.8-1.6s2.8,0.6,3.8,1.6
			c2.1,2.1,2.1,5.5,0,7.6l-1.9,1.9c-0.4,0.4-1.2,0.4-1.6,0c-0.4-0.4-0.4-1.2,0-1.6l1.9-1.9c1.2-1.2,1.2-3.2,0-4.4
			c-0.6-0.6-1.4-0.9-2.2-0.9S16,3.6,15.5,4.2l-4.2,4.2c-1.2,1.2-1.2,3.2,0,4.4c0.4,0.4,0.4,1.2,0,1.6C11,14.6,10.7,14.7,10.4,14.7
			L10.4,14.7z"/>
		<path fill="#6D6E71" d="M6.4,23c-1.4,0-2.8-0.6-3.8-1.6c-2.1-2.1-2.1-5.5,0-7.6l1.9-1.9c0.4-0.4,1.2-0.4,1.6,0s0.4,1.2,0,1.6
			l-1.9,1.9c-1.2,1.2-1.2,3.2,0,4.4c0.6,0.6,1.4,0.9,2.2,0.9s1.6-0.3,2.2-0.9l4.2-4.2c1.2-1.2,1.2-3.2,0-4.4c-0.4-0.4-0.4-1.2,0-1.6
			c0.4-0.4,1.2-0.4,1.6,0c2.1,2.1,2.1,5.5,0,7.6l-4.2,4.2C9.2,22.4,7.8,23,6.4,23z"/>
	</g>
</g>
<g id="Layer_14">
</g>
<g id="Layer_13">
</g>
<g id="Layer_12">
</g>
<g id="Layer_11">
</g>
<g id="Layer_10">
</g>
<g id="Layer_9">
</g>
<g id="Layer_8">
</g>
<g id="Layer_7">
</g>
<g id="Layer_6">
</g>
<g id="Layer_5">
</g>
<g id="Layer_4">
</g>
<g id="Layer_3">
</g>
<g id="Layer_2">
</g>
<g id="Layer_1">
</g>
</svg>
