<?xml version="1.0" encoding="utf-8"?>
<!-- Generator: Adobe Illustrator 18.0.0, SVG Export Plug-In . SVG Version: 6.00 Build 0)  -->
<!DOCTYPE svg PUBLIC "-//W3C//DTD SVG 1.1//EN" "http://www.w3.org/Graphics/SVG/1.1/DTD/svg11.dtd">
<svg version="1.1" xmlns="http://www.w3.org/2000/svg" xmlns:xlink="http://www.w3.org/1999/xlink" x="0px" y="0px"
	 viewBox="0 0 24 24" enable-background="new 0 0 24 24" xml:space="preserve">
<g id="Layer_23">
</g>
<g id="Layer_22">
</g>
<g id="Layer_21">
</g>
<g id="Layer_20">
</g>
<g id="Layer_19">
</g>
<g id="Layer_18">
</g>
<g id="Layer_17">
</g>
<g id="Layer_16">
</g>
<g id="Layer_15">
	<g>
		<path fill="#FFFFFF" d="M14.7,11.3c0.2,0.2,0.3,0.4,0.3,0.7c0,2.7-2.1,4.8-4.8,4.9l-5.4,0c-1.3,0-2.5-0.5-3.4-1.4
			C0.5,14.6,0,13.4,0,12.1c0-2.7,2.1-4.8,4.8-4.9l2.5,0c0.6,0,1,0.5,1,1s-0.5,1-1,1l-2.5,0c-1.5,0-2.8,1.3-2.8,2.8
			c0,0.7,0.3,1.4,0.8,2s1.2,0.8,2,0.8l5.4,0c1.5,0,2.8-1.3,2.8-2.8c0-0.6,0.5-1,1-1C14.3,11,14.5,11.1,14.7,11.3L14.7,11.3z"/>
		<path fill="#FFFFFF" d="M22.6,8.5c0.9,0.9,1.4,2.1,1.4,3.4c0,2.7-2.1,4.8-4.8,4.9l-2.5,0c-0.6,0-1-0.5-1-1s0.5-1,1-1l2.5,0
			c1.5,0,2.8-1.3,2.8-2.8c0-0.7-0.3-1.4-0.8-2c-0.5-0.5-1.2-0.8-2-0.8l-5.4,0c-1.5,0-2.8,1.3-2.8,2.8c0,0.6-0.5,1-1,1s-1-0.5-1-1
			c0-2.7,2.1-4.8,4.8-4.9l5.4,0C20.4,7.1,21.6,7.6,22.6,8.5z"/>
	</g>
</g>
<g id="Layer_14">
</g>
<g id="Layer_13">
</g>
<g id="Layer_12">
</g>
<g id="Layer_11">
</g>
<g id="Layer_10">
</g>
<g id="Layer_9">
</g>
<g id="Layer_8">
</g>
<g id="Layer_7">
</g>
<g id="Layer_6">
</g>
<g id="Layer_5">
</g>
<g id="Layer_4">
</g>
<g id="Layer_3">
</g>
<g id="Layer_2">
</g>
<g id="Layer_1">
</g>
</svg>
