<?xml version="1.0" encoding="utf-8"?>
<!-- Generator: Adobe Illustrator 18.0.0, SVG Export Plug-In . SVG Version: 6.00 Build 0)  -->
<!DOCTYPE svg PUBLIC "-//W3C//DTD SVG 1.1//EN" "http://www.w3.org/Graphics/SVG/1.1/DTD/svg11.dtd">
<svg version="1.1" xmlns="http://www.w3.org/2000/svg" xmlns:xlink="http://www.w3.org/1999/xlink" x="0px" y="0px"
	 viewBox="0 0 24 24" enable-background="new 0 0 24 24" xml:space="preserve">
<g id="Layer_23">
	<g>
		<polygon fill="#939598" points="18.9,15.2 18.9,12.2 11.4,12.2 11.4,9.2 18.9,9.2 18.9,6.2 23.4,10.7 		"/>
		<path fill="#6D6E71" d="M17.4,14.1v5.3c0,0.2-0.2,0.4-0.4,0.4H9.9v3.9c0,0.3-0.3,0.4-0.5,0.3l-8.3-4.1c-0.1-0.1-0.2-0.2-0.2-0.3
			V0.6c0-0.2,0.2-0.4,0.4-0.4H17c0.2,0,0.4,0.2,0.4,0.4v6.8c0,0.2-0.2,0.4-0.4,0.4h-0.8c-0.2,0-0.4-0.2-0.4-0.4V2.1
			c0-0.2-0.2-0.4-0.4-0.4H3.9l5.8,2.9c0.1,0.1,0.2,0.2,0.2,0.3v13.3h6v-4.1c0-0.2,0.2-0.4,0.4-0.4H17C17.2,13.7,17.4,13.9,17.4,14.1
			z"/>
	</g>
</g>
<g id="Layer_22">
</g>
<g id="Layer_21">
</g>
<g id="Layer_20">
</g>
<g id="Layer_19">
</g>
<g id="Layer_18">
</g>
<g id="Layer_17">
</g>
<g id="Layer_16">
</g>
<g id="Layer_15">
</g>
<g id="Layer_14">
</g>
<g id="Layer_13">
</g>
<g id="Layer_12">
</g>
<g id="Layer_11">
</g>
<g id="Layer_10">
</g>
<g id="Layer_9">
</g>
<g id="Layer_8">
</g>
<g id="Layer_7">
</g>
<g id="Layer_6">
</g>
<g id="Layer_5">
</g>
<g id="Layer_4">
</g>
<g id="Layer_3">
</g>
<g id="Layer_2">
</g>
<g id="Layer_1">
</g>
</svg>
