<?xml version="1.0" encoding="utf-8"?>
<!-- Generator: Adobe Illustrator 18.0.0, SVG Export Plug-In . SVG Version: 6.00 Build 0)  -->
<!DOCTYPE svg PUBLIC "-//W3C//DTD SVG 1.1//EN" "http://www.w3.org/Graphics/SVG/1.1/DTD/svg11.dtd">
<svg version="1.1" xmlns="http://www.w3.org/2000/svg" xmlns:xlink="http://www.w3.org/1999/xlink" x="0px" y="0px"
	 viewBox="0 0 24 24" enable-background="new 0 0 24 24" xml:space="preserve">
<g id="Layer_20">
</g>
<g id="Layer_19">
</g>
<g id="Layer_18">
</g>
<g id="Layer_17">
</g>
<g id="Layer_16">
</g>
<g id="Layer_15">
</g>
<g id="Layer_14">
	<path fill="#6D6E71" d="M21.4,19l-4.7-4c-0.5-0.4-1-0.6-1.4-0.6c1.1-1.3,1.8-3,1.8-4.9C17,5.4,13.6,2,9.5,2S2,5.4,2,9.5
		S5.4,17,9.5,17c1.9,0,3.6-0.7,4.9-1.8c0,0.4,0.2,0.9,0.6,1.4l4,4.7c0.7,0.8,1.8,0.8,2.5,0.1C22.2,20.8,22.1,19.7,21.4,19L21.4,19z
		 M9.5,14.5c-2.8,0-5-2.2-5-5s2.2-5,5-5s5,2.2,5,5S12.3,14.5,9.5,14.5z"/>
</g>
<g id="Layer_13">
</g>
<g id="Layer_12">
</g>
<g id="Layer_11">
</g>
<g id="Layer_10">
</g>
<g id="Layer_9">
</g>
<g id="Layer_8">
</g>
<g id="Layer_7">
</g>
<g id="Layer_6">
</g>
<g id="Layer_5">
</g>
<g id="Layer_4">
</g>
<g id="Layer_3">
</g>
<g id="Layer_2">
</g>
<g id="Layer_1">
</g>
</svg>
