<?xml version="1.0" encoding="utf-8"?>
<!-- Generator: Adobe Illustrator 18.0.0, SVG Export Plug-In . SVG Version: 6.00 Build 0)  -->
<!DOCTYPE svg PUBLIC "-//W3C//DTD SVG 1.1//EN" "http://www.w3.org/Graphics/SVG/1.1/DTD/svg11.dtd">
<svg version="1.1" xmlns="http://www.w3.org/2000/svg" xmlns:xlink="http://www.w3.org/1999/xlink" x="0px" y="0px"
	 viewBox="0 0 24 24" enable-background="new 0 0 24 24" xml:space="preserve">
<g id="Layer_20">
</g>
<g id="Layer_19">
</g>
<g id="Layer_18">
</g>
<g id="Layer_17">
</g>
<g id="Layer_16">
</g>
<g id="Layer_15">
</g>
<g id="Layer_14">
</g>
<g id="Layer_13">
</g>
<g id="Layer_12">
</g>
<g id="Layer_11">
</g>
<g id="Layer_10">
</g>
<g id="Layer_9">
</g>
<g id="Layer_8">
</g>
<g id="Layer_7">
	<g>
		<path fill="none" stroke="#3F90CD" stroke-width="2" stroke-miterlimit="10" d="M20.2,10.7c0.1-0.4,0.1-0.7,0.1-1.1
			c-0.1-1.5-1.3-2.8-2.7-3.1c-0.5-0.1-1.1-0.1-1.6,0.1c-0.5-1.7-2.1-2.9-3.9-2.9c-1.9,0-3.5,1.3-4,3C7.2,6.4,6.3,6.4,5.3,6.6
			C3.2,7,1.5,8.8,1.1,11c-0.6,3.5,2,6.6,5.4,6.6h2.3c0.2,0,1.4,0.1,1.6,0.1h4.7c0.2,0,4.2-0.1,4.2-0.1c1.8,0,3.4-1.3,3.6-3.1
			C23.2,12.6,21.9,11,20.2,10.7z"/>
		<path fill="#3E90CD" stroke="#3F90CD" stroke-miterlimit="10" d="M13.3,12.3v3.2c0,0.2-0.2,0.3-0.3,0.3h-1.6
			c-0.2,0-0.3-0.2-0.3-0.3v-3.2H8.9c-0.3,0-0.5-0.4-0.2-0.6l3.3-3.3c0.1-0.1,0.4-0.1,0.5,0l3.3,3.3c0.2,0.2,0.1,0.6-0.2,0.6H13.3z"
			/>
	</g>
</g>
<g id="Layer_6">
</g>
<g id="Layer_5">
</g>
<g id="Layer_4">
</g>
<g id="Layer_3">
</g>
<g id="Layer_2">
</g>
<g id="Layer_1">
</g>
</svg>
