<?xml version="1.0" encoding="utf-8"?>
<!-- Generator: Adobe Illustrator 18.0.0, SVG Export Plug-In . SVG Version: 6.00 Build 0)  -->
<!DOCTYPE svg PUBLIC "-//W3C//DTD SVG 1.1//EN" "http://www.w3.org/Graphics/SVG/1.1/DTD/svg11.dtd">
<svg version="1.1" xmlns="http://www.w3.org/2000/svg" xmlns:xlink="http://www.w3.org/1999/xlink" x="0px" y="0px"
	 viewBox="0 0 24 24" enable-background="new 0 0 24 24" xml:space="preserve">
<g id="Layer_20">
</g>
<g id="Layer_19">
</g>
<g id="Layer_18">
</g>
<g id="Layer_17">
</g>
<g id="Layer_16">
</g>
<g id="Layer_15">
</g>
<g id="Layer_14">
</g>
<g id="Layer_13">
</g>
<g id="Layer_12">
</g>
<g id="Layer_11">
</g>
<g id="Layer_10">
</g>
<g id="Layer_9">
</g>
<g id="Layer_8">
</g>
<g id="Layer_7">
</g>
<g id="Layer_6">
</g>
<g id="Layer_5">
</g>
<g id="Layer_4">
	<g>
		<path fill="#6D6E71" d="M6.1,4H5.2C4.8,4,4.5,3.7,4.5,3.4V0.7C4.5,0.3,4.8,0,5.2,0h0.9c0.4,0,0.7,0.3,0.7,0.7v2.7
			C6.8,3.7,6.5,4,6.1,4z"/>
		<path fill="#6D6E71" d="M18.7,4h-0.9c-0.4,0-0.7-0.3-0.7-0.7V0.7c0-0.4,0.3-0.7,0.7-0.7h0.9c0.4,0,0.7,0.3,0.7,0.7v2.7
			C19.4,3.7,19.1,4,18.7,4z"/>
		<g>
			<path fill="none" stroke="#6D6E71" stroke-width="2" stroke-miterlimit="10" d="M22,23H2c-0.6,0-1-0.4-1-1V3.5c0-0.6,0.4-1,1-1
				h20c0.6,0,1,0.4,1,1V22C23,22.6,22.6,23,22,23z"/>
			<g>
				<rect x="13.3" y="11.7" fill="none" stroke="#939598" stroke-miterlimit="10" width="5.8" height="5.9"/>
				<rect x="4.7" y="11.8" fill="#939598" stroke="#939598" stroke-miterlimit="10" width="1.9" height="1.9"/>
				<rect x="8.5" y="11.8" fill="#939598" stroke="#939598" stroke-miterlimit="10" width="1.9" height="1.9"/>
				<rect x="4.7" y="15.5" fill="#939598" stroke="#939598" stroke-miterlimit="10" width="1.9" height="1.9"/>
				<rect x="8.5" y="15.5" fill="#939598" stroke="#939598" stroke-miterlimit="10" width="1.9" height="1.9"/>
			</g>
		</g>
		<line fill="none" stroke="#939598" stroke-miterlimit="10" x1="2" y1="6.9" x2="22" y2="6.9"/>
	</g>
</g>
<g id="Layer_3">
</g>
<g id="Layer_2">
</g>
<g id="Layer_1">
</g>
</svg>
